# xmcd
# 
# Track frame offsets:
#     150
#     16477
#     35320
#     51622
# 
# Disc length: 937
# 
# Revision: 0
# Processed by: cddbd v1.5.2PL0 Copyright (c) Steve Scherf et al.
# Submitted via: fre:ac v1.0.31
# 
DISCID=2f03a704
DTITLE=でんぱ組.inc - ちゅるりちゅるりら
DYEAR=2014
DGENRE=JPop
TTITLE0=ちゅるりちゅるりら
TTITLE1=檸檬色
TTITLE2=ちゅるりちゅるりら(Off vocal)
TTITLE3=檸檬色(Off vocal)
EXTD=
EXTT0=
EXTT1=
EXTT2=
EXTT3=
PLAYORDER=
